# xmcd
#
# Track frame offsets: 
#        150
#        24550
#        43775
#        71851
#        90242
#        107423
#        128312
#        147315
#        170184
#        197554
#        222631
#        250481
#        274098
#        297166
#        328500
#
# Disc length: 4701 seconds
#
# Revision: 0
# Processed by: cddbd v1.5.2PL0 Copyright (c) Steve Scherf et al.
# Submitted via: ExactAudioCopy v1.0b3
#
DISCID=e3125b0f
DTITLE=Various Artist - D.Techno Vol. 31 - CD 1
DYEAR=1900
DGENRE=
TTITLE0=Inner Heat - We Are 1ne
TTITLE1=Alpha Twins - From The Rain
TTITLE2=Pulsatorz - Aliens (Original Mix)
TTITLE3=Brennan Heart - Freaqshow (2012 Anthem) (Extended Mix)
TTITLE4=Noisecontrollers - Experience The Beyond (Official IQON 2013 A
TTITLE4=nthem) (Edit)
TTITLE5=Slim Shore and Focuz - Follow Me (Original Mix)
TTITLE6=The Anarchist - Try And Stop Us (Original Mix)
TTITLE7=Wildstylez - Timeless
TTITLE8=Da Tweekaz - Break The Spell (Technoboy's Vision)
TTITLE9=Frontliner - Come On!
TTITLE10=Outlander - Fire (Original Mix)
TTITLE11=Dutch Master - Luca
TTITLE12=Sound Freakerz - Last Dance
TTITLE13=DJ Activator - Winter Song
TTITLE14=DJ Zany and Code Black Feat. DV8 Rocks! - Survive
EXTD=
EXTT0=
EXTT1=
EXTT2=
EXTT3=
EXTT4=
EXTT5=
EXTT6=
EXTT7=
EXTT8=
EXTT9=
EXTT10=
EXTT11=
EXTT12=
EXTT13=
EXTT14=
PLAYORDER=
